<?xml version="1.0" encoding="utf-8"?>
<svg xmlns="http://www.w3.org/2000/svg" viewBox="333.7556 290.473 30.3458 30.301" width="30.3458px" height="30.301px">
  <g transform="matrix(1, 0, 0, 1, 0, -252.36218261718747)">
    <title>A</title>
    <path style="fill-opacity: 1; stroke: rgb(0, 0, 0); stroke-width: 0.82506; stroke-linecap: round; stroke-linejoin: round; stroke-miterlimit: 4; stroke-opacity: 1; stroke-dasharray: none; transform-box: fill-box; transform-origin: 50% 50%; fill: rgb(255, 255, 255);" id="path3869" d="M 364.079 557.986 C 364.079 569.648 351.453 576.938 341.353 571.106 C 336.665 568.4 333.778 563.398 333.778 557.986 C 333.778 546.323 346.403 539.034 356.503 544.865 C 361.191 547.571 364.079 552.573 364.079 557.986 Z" transform="matrix(0, 1, -1, 0, -0.000024, 0.00002)"/>
    <path style="stroke: none;" d="M 341.264 565.858 C 341.324 565.698 347.33 550.28 347.406 550.089 L 347.493 549.87 L 349.185 549.87 L 350.876 549.87 L 354.073 557.851 C 355.831 562.24 357.278 565.851 357.287 565.876 C 357.301 565.911 356.952 565.918 355.56 565.91 L 353.815 565.9 L 353.112 564.069 L 352.409 562.238 L 349.186 562.248 L 345.962 562.258 L 345.298 564.089 L 344.633 565.92 L 342.937 565.92 C 341.336 565.92 341.242 565.91 341.264 565.859 L 341.264 565.858 Z M 351.367 559.533 C 351.357 559.509 350.856 558.16 350.253 556.535 C 349.65 554.911 349.146 553.594 349.133 553.609 C 349.116 553.629 347.827 557.157 346.969 559.533 C 346.956 559.567 347.411 559.576 349.168 559.576 C 350.926 559.576 351.38 559.566 351.367 559.533 Z" id="path3810"/>
  </g>
</svg>