<?xml version="1.0" encoding="utf-8"?>
<svg xmlns="http://www.w3.org/2000/svg" viewBox="302.463 321.7652 30.301 30.3458" width="30.301px" height="30.3458px">
  <g transform="matrix(1, 0, 0, 1, 0, -252.36218261718747)">
    <path d="M 332.764 589.3 C 332.764 600.963 320.139 608.252 310.038 602.421 C 305.351 599.715 302.463 594.713 302.463 589.3 C 302.463 577.638 315.088 570.348 325.189 576.18 C 329.876 578.886 332.764 583.888 332.764 589.3 Z" id="path3865" style="fill:#44484c;fill-opacity:1;stroke:#000000;stroke-width:0.82506043;stroke-linecap:round;stroke-linejoin:round;stroke-miterlimit:4;stroke-opacity:1;stroke-dasharray:none"/>
    <path style="fill:#ffffff;stroke:none" d="M 311.669 589.645 L 311.669 581.635 L 315.629 581.652 C 319.577 581.669 320.003 581.682 320.795 581.802 C 321.996 581.984 322.982 582.598 323.633 583.569 C 324.622 585.044 324.463 586.969 323.244 588.261 C 322.96 588.563 322.687 588.774 322.308 588.986 L 322.014 589.151 L 322.252 589.23 C 322.834 589.422 323.449 589.774 323.862 590.152 C 324.346 590.596 324.764 591.3 324.945 591.979 C 325.028 592.289 325.037 592.388 325.04 592.97 C 325.04 593.475 325.029 593.68 324.979 593.906 C 324.777 594.825 324.332 595.679 323.741 596.281 C 322.984 597.052 322.056 597.443 320.731 597.55 C 320.071 597.603 316.856 597.653 314.055 597.654 L 311.669 597.654 L 311.669 589.644 L 311.669 589.645 Z M 319.653 594.928 C 320.393 594.867 320.787 594.716 321.178 594.348 C 321.582 593.966 321.75 593.526 321.748 592.848 C 321.748 591.802 321.18 591.07 320.196 590.84 C 319.626 590.706 319.292 590.688 317.063 590.672 L 314.886 590.656 L 314.886 592.809 L 314.886 594.963 L 317.063 594.963 C 318.26 594.963 319.425 594.947 319.653 594.928 L 319.653 594.928 Z M 318.365 588.007 C 319.532 587.974 319.766 587.94 320.187 587.741 C 320.627 587.532 320.937 587.185 321.084 586.738 C 321.184 586.432 321.184 585.808 321.083 585.497 C 320.894 584.914 320.461 584.538 319.795 584.38 C 319.588 584.331 319.225 584.321 317.22 584.308 L 314.886 584.294 L 314.886 586.168 L 314.886 588.041 L 316.101 588.041 C 316.769 588.041 317.788 588.026 318.365 588.01 L 318.365 588.007 Z" id="path3814"/>
  </g>
</svg>