<?xml version="1.0" encoding="utf-8"?>
<svg xmlns="http://www.w3.org/2000/svg" viewBox="69.659 276.1613 64.125 64.2208" width="64.125px" height="64.2208px">
  <g style="" transform="matrix(1, 0, 0, 1, 0, -252.3621826171875)">
    <title>leftJoy</title>
    <path d="M 133.784 560.634 C 133.784 585.315 107.066 600.742 85.691 588.401 C 75.77 582.673 69.659 572.089 69.659 560.634 C 69.659 535.952 96.378 520.526 117.753 532.867 C 127.673 538.594 133.784 549.179 133.784 560.634 Z" id="path3907" style="fill-opacity: 1; stroke: rgb(0, 0, 0); stroke-width: 1; stroke-linecap: round; stroke-linejoin: round; stroke-miterlimit: 4; stroke-opacity: 1; stroke-dasharray: none; fill: rgb(255, 255, 255);"/>
    <path style="fill-opacity: 1; stroke: rgb(0, 0, 0); stroke-width: 1.426; stroke-linecap: round; stroke-linejoin: round; stroke-miterlimit: 4; stroke-opacity: 1; stroke-dasharray: none; fill: rgb(255, 255, 255);" id="path3909" d="M 124.206 560.856 C 124.206 578.164 105.469 588.982 90.48 580.328 C 83.523 576.312 79.238 568.889 79.238 560.856 C 79.238 543.548 97.974 532.73 112.964 541.384 C 119.92 545.401 124.206 552.823 124.206 560.856 Z"/>
    <path id="path3911" d="m 100.56002,534.51999 c 2e-4,-2.14499 0.006,-3.41233 0.0158,-3.48046 0.0299,-0.20675 0.13156,-0.40432 0.28919,-0.56195 0.4752,-0.4752 1.28334,-0.33419 1.57638,0.27505 0.10984,0.22838 0.10221,-0.0485 0.10247,3.71783 l 2.3e-4,3.40192 -0.70143,-8.2e-4 c -0.38578,-4.5e-4 -0.83227,0.004 -0.99219,0.0105 l -0.29075,0.0113 3e-4,-3.37331 z" style="fill:#000000;stroke:#000000;stroke-width:0.03125;stroke-linecap:round;stroke-linejoin:round;stroke-miterlimit:4;stroke-opacity:1;stroke-dasharray:none"/>
    <path id="path3913" d="m 101.44044,590.94079 c -0.38945,-0.0436 -0.7247,-0.33325 -0.8473,-0.73195 -0.0244,-0.0793 -0.0268,-0.33014 -0.0311,-3.23924 l -0.005,-3.1533 0.2308,0.0127 c 0.12694,0.007 0.57368,0.0127 0.99275,0.0127 l 0.76194,0 -0.004,3.15625 -0.004,3.15625 -0.0347,0.10157 c -0.10445,0.30532 -0.34564,0.54509 -0.65134,0.64749 -0.0998,0.0334 -0.28935,0.0509 -0.40814,0.0376 l 0,0 z" style="fill:#000000;fill-opacity:1;stroke:#000000;stroke-width:0.03125;stroke-linecap:round;stroke-linejoin:round;stroke-miterlimit:4;stroke-opacity:1;stroke-dasharray:none"/>
    <path id="path3915" d="m 124.70653,560.92405 c 0,-0.35469 -0.006,-0.80142 -0.0127,-0.99274 l -0.0127,-0.34784 3.23141,0.004 3.23141,0.004 0.11461,0.0419 c 0.43114,0.15748 0.6991,0.55501 0.66997,0.99393 -0.0161,0.24326 -0.11165,0.45768 -0.28091,0.63065 -0.13281,0.13572 -0.25762,0.20774 -0.48804,0.28161 -0.0498,0.016 -0.71149,0.021 -3.25781,0.0246 l -3.19532,0.005 0,-0.6449 0,0 z" style="fill:#000000;fill-opacity:1;stroke:#000000;stroke-width:0.03125;stroke-linecap:round;stroke-linejoin:round;stroke-miterlimit:4;stroke-opacity:1;stroke-dasharray:none"/>
    <path id="path3917" d="m 72.034659,561.55188 c -0.21504,-0.0284 -0.42503,-0.1369 -0.57817,-0.2988 -0.53275,-0.56321 -0.26401,-1.4625 0.49223,-1.64714 0.0705,-0.0172 0.68912,-0.0211 3.44981,-0.0215 l 3.36387,-5.6e-4 -0.0123,0.33203 c -0.007,0.18262 -0.0123,0.62911 -0.0123,0.9922 l 0,0.66016 -3.30468,-0.002 c -1.81758,-10e-4 -3.34688,-0.008 -3.39844,-0.0144 z" style="fill:#000000;fill-opacity:1;stroke:#000000;stroke-width:0.03125;stroke-linecap:round;stroke-linejoin:round;stroke-miterlimit:4;stroke-opacity:1;stroke-dasharray:none"/>
  </g>
</svg>