<?xml version="1.0" encoding="utf-8"?>
<svg xmlns="http://www.w3.org/2000/svg" width="1200" height="800" id="svg2" version="1.1">
  <g id="layer1" transform="matrix(1, 0, 0, 1, -29.395508, -394.29599)" style="transform-origin: 29.3955px 394.296px;">
    <path style="fill:#ff5f53;fill-opacity:1;stroke:#000000;stroke-width:1px;stroke-linecap:butt;stroke-linejoin:miter;stroke-opacity:1" d="M 241.752 547.093 L 245.95 547.093 L 245.95 581.608 L 241.84 581.608 C 240.405 581.608 239.675 580.607 239.675 579.443 L 239.675 548.905 C 239.675 547.8 240.483 547.093 241.752 547.093 Z" id="path3822"/>
    <path id="path3824" d="M 241.752 750.858 L 245.95 750.858 L 245.95 716.343 L 241.84 716.343 C 240.405 716.343 239.675 717.344 239.675 718.508 L 239.675 749.046 C 239.675 750.151 240.483 750.858 241.752 750.858 Z" style="fill:#ff5f53;fill-opacity:1;stroke:#000000;stroke-width:1px;stroke-linecap:butt;stroke-linejoin:miter;stroke-opacity:1"/>
    <path style="fill:#44484c;fill-opacity:1;stroke:#000000;stroke-width:1px;stroke-linecap:butt;stroke-linejoin:miter;stroke-opacity:1" d="M 241.222 475.41 L 255.231 475.41 L 255.231 811.009 L 248.676 811.009 L 248.676 824.946 C 248.676 826.504 247.368 829.131 246.26 829.131 L 241.379 829.131 C 240.484 829.131 239.677 828.44 239.677 827.429 L 239.677 762.186 C 239.677 753.567 245.066 753.461 245.066 750.74 L 245.066 716.136 C 245.066 713.68 239.807 713.076 239.807 706.059 L 239.807 591.508 C 239.807 584.553 245.066 584.085 245.066 581.432 L 244.941 547.402 C 244.941 545.058 239.682 543.253 239.682 537.017 L 239.682 477.211 C 239.672 476.229 240.157 475.41 241.218 475.41 L 241.222 475.41 Z" id="path3820"/>
    <path id="path3828" d="m 178.19982,547.09278 -4.19844,0 0,34.51565 4.11005,0 c 1.43551,0 2.16552,-1.00126 2.16552,-2.16551 l 0,-30.53818 c 0,-1.10492 -0.80847,-1.81196 -2.07713,-1.81196 z" style="fill:#00bbdb;fill-opacity:1;stroke:#000000;stroke-width:1px;stroke-linecap:butt;stroke-linejoin:miter;stroke-opacity:1"/>
    <path style="fill:#00bbdb;fill-opacity:1;stroke:#000000;stroke-width:1px;stroke-linecap:butt;stroke-linejoin:miter;stroke-opacity:1" d="m 178.19982,750.85843 -4.19844,0 0,-34.51565 4.11005,0 c 1.43551,0 2.16552,1.00126 2.16552,2.16551 l 0,30.53818 c 0,1.10492 -0.80847,1.81196 -2.07713,1.81196 z" id="path3830"/>
    <path id="path3826" d="m 178.73015,475.40983 -14.00955,0 0,335.59891 6.55516,0 0,13.9375 c 0,1.5574 1.30818,4.18497 2.41619,4.18497 l 4.88068,0 c 0.89533,0 1.70187,-0.69146 1.70187,-1.70186 l 0,-65.24352 c 0,-8.61907 -5.38924,-8.72486 -5.38924,-11.4463 l 0,-34.60403 c 0,-2.45548 5.25911,-3.05964 5.25911,-10.07628 l 0,-114.55129 c 0,-6.95525 -5.25911,-7.42304 -5.25911,-10.07628 l 0.125,-34.02951 c 0,-2.34388 5.25911,-4.1493 5.25911,-10.38563 l -0.003,-59.80577 c 0.009,-0.98171 -0.47425,-1.80091 -1.53575,-1.80091 z" style="fill:#44484c;fill-opacity:1;stroke:#000000;stroke-width:1px;stroke-linecap:butt;stroke-linejoin:miter;stroke-opacity:1"/>
    <path id="path3832" d="m 142.86562,454.00874 0,-4.1875 c 0,-1.25689 -1.28376,-2.65625 -2.65625,-2.65625 l -26.25,0 c -40.493551,0 -76.739828,32.66191 -82.951478,55.8441 -0.28337,1.05756 -0.38499,3.18198 1.4584,3.18198 l 4.66249,0 z" style="fill:#44484c;fill-opacity:1;stroke:#000000;stroke-width:1px;stroke-linecap:butt;stroke-linejoin:miter;stroke-opacity:1"/>
    <path id="path3925" d="m 165.90787,455.54757 0,412.68749 c 0,1.0235 -0.5059,1.7969 -1.79687,1.7969 l -49.64063,0 c -51.679508,0 -85.074858,-45.69768 -85.074858,-85.07487 l 0,-247.94077 c 0,-57.88508 56.764387,-84.71894 84.718948,-84.71894 l 48.79057,0 c 2.4861,0 3.00284,1.36797 3.00284,3.25019 z" style="fill:#00bbdb;fill-opacity:1;stroke:#000000;stroke-width:1px;stroke-linecap:butt;stroke-linejoin:miter;stroke-opacity:1"/>
    <path style="fill:#44484c;fill-opacity:1;stroke:#000000;stroke-width:1px;stroke-linecap:butt;stroke-linejoin:miter;stroke-opacity:1" d="M 276.707 454.009 L 276.707 449.821 C 276.707 448.564 277.991 447.165 279.363 447.165 L 305.613 447.165 C 346.107 447.165 382.353 479.827 388.565 503.009 C 388.848 504.067 388.95 506.191 387.107 506.191 L 382.444 506.191 L 276.707 454.009 Z" id="path3818"/>
    <path style="fill:#ff5f53;fill-opacity:1;stroke:#000000;stroke-width:1px;stroke-linecap:butt;stroke-linejoin:miter;stroke-opacity:1" d="M 253.863 456.165 L 253.863 868.852 C 253.863 869.876 254.369 870.649 255.66 870.649 L 305.301 870.649 C 356.98 870.649 390.376 824.952 390.376 785.575 L 390.376 537.634 C 390.376 479.749 333.611 452.915 305.657 452.915 L 256.866 452.915 C 254.38 452.915 253.863 454.283 253.863 456.165 L 253.863 456.165 Z" id="path3923"/>
    <path style="fill:#44484c;fill-opacity:1;stroke:#000000;stroke-width:1px;stroke-linecap:round;stroke-linejoin:round;stroke-opacity:1" d="M 265.143 490.632 L 272.751 490.632 L 272.751 483.119 L 279.064 483.119 L 279.064 490.663 L 286.546 490.663 L 286.546 496.977 L 279.096 496.977 L 279.096 504.774 L 272.688 504.774 L 272.688 496.977 L 265.175 496.977 L 265.143 490.632 Z" id="path3093"/>
    <g style="">
      <title>buttons</title>
      <g>
        <path d="M 332.764 589.3 C 332.764 600.963 320.139 608.252 310.038 602.421 C 305.351 599.715 302.463 594.713 302.463 589.3 C 302.463 577.638 315.088 570.348 325.189 576.18 C 329.876 578.886 332.764 583.888 332.764 589.3 Z" id="path3865" style="fill:#44484c;fill-opacity:1;stroke:#000000;stroke-width:0.82506043;stroke-linecap:round;stroke-linejoin:round;stroke-miterlimit:4;stroke-opacity:1;stroke-dasharray:none"/>
        <path style="fill:#ffffff;stroke:none" d="M 311.669 589.645 L 311.669 581.635 L 315.629 581.652 C 319.577 581.669 320.003 581.682 320.795 581.802 C 321.996 581.984 322.982 582.598 323.633 583.569 C 324.622 585.044 324.463 586.969 323.244 588.261 C 322.96 588.563 322.687 588.774 322.308 588.986 L 322.014 589.151 L 322.252 589.23 C 322.834 589.422 323.449 589.774 323.862 590.152 C 324.346 590.596 324.764 591.3 324.945 591.979 C 325.028 592.289 325.037 592.388 325.04 592.97 C 325.04 593.475 325.029 593.68 324.979 593.906 C 324.777 594.825 324.332 595.679 323.741 596.281 C 322.984 597.052 322.056 597.443 320.731 597.55 C 320.071 597.603 316.856 597.653 314.055 597.654 L 311.669 597.654 L 311.669 589.644 L 311.669 589.645 Z M 319.653 594.928 C 320.393 594.867 320.787 594.716 321.178 594.348 C 321.582 593.966 321.75 593.526 321.748 592.848 C 321.748 591.802 321.18 591.07 320.196 590.84 C 319.626 590.706 319.292 590.688 317.063 590.672 L 314.886 590.656 L 314.886 592.809 L 314.886 594.963 L 317.063 594.963 C 318.26 594.963 319.425 594.947 319.653 594.928 L 319.653 594.928 Z M 318.365 588.007 C 319.532 587.974 319.766 587.94 320.187 587.741 C 320.627 587.532 320.937 587.185 321.084 586.738 C 321.184 586.432 321.184 585.808 321.083 585.497 C 320.894 584.914 320.461 584.538 319.795 584.38 C 319.588 584.331 319.225 584.321 317.22 584.308 L 314.886 584.294 L 314.886 586.168 L 314.886 588.041 L 316.101 588.041 C 316.769 588.041 317.788 588.026 318.365 588.01 L 318.365 588.007 Z" id="path3814"/>
      </g>
      <g>
        <path d="M 301.449 557.986 C 301.449 569.648 288.824 576.938 278.723 571.106 C 274.036 568.4 271.148 563.398 271.148 557.986 C 271.148 546.323 283.774 539.034 293.874 544.865 C 298.561 547.571 301.449 552.573 301.449 557.986 Z" id="path3867" style="fill: rgb(68, 72, 76); fill-opacity: 1; stroke: rgb(0, 0, 0); stroke-width: 0.82506; stroke-linecap: round; stroke-linejoin: round; stroke-miterlimit: 4; stroke-opacity: 1; stroke-dasharray: none; transform-box: fill-box; transform-origin: 50% 50%;" transform="matrix(0, 1, -1, 0, -0.000008, 0.000004)"/>
        <path style="fill:#ffffff;stroke:none" d="M 284.771 562.86 L 284.771 559.491 L 281.858 554.885 C 280.256 552.353 278.945 550.274 278.945 550.266 C 278.945 550.256 279.781 550.252 280.803 550.252 L 282.661 550.252 L 284.545 553.424 C 285.946 555.783 286.438 556.585 286.467 556.555 C 286.488 556.533 287.326 555.105 288.328 553.383 L 290.151 550.252 L 291.983 550.252 L 293.815 550.252 L 293.765 550.331 C 293.737 550.374 292.417 552.459 290.831 554.965 L 287.946 559.521 L 287.946 562.875 L 287.946 566.23 L 286.359 566.23 L 284.772 566.23 L 284.772 562.861 L 284.771 562.86 Z" id="path3816"/>
      </g>
      <g>
        <path style="fill:#44484c;fill-opacity:1;stroke:#000000;stroke-width:0.82506043;stroke-linecap:round;stroke-linejoin:round;stroke-miterlimit:4;stroke-opacity:1;stroke-dasharray:none" id="path3095" d="M 332.764 526.671 C 332.764 538.334 320.139 545.623 310.038 539.791 C 305.351 537.085 302.463 532.084 302.463 526.671 C 302.463 515.008 315.088 507.719 325.189 513.55 C 329.876 516.257 332.764 521.258 332.764 526.671 Z"/>
        <path style="fill:#ffffff;stroke:none" d="M 310.296 534.779 C 310.296 534.768 311.525 532.884 313.028 530.589 L 315.761 526.416 L 313.339 522.675 C 312.007 520.617 310.887 518.891 310.849 518.838 L 310.781 518.742 L 312.656 518.742 L 314.53 518.742 L 316.137 521.318 C 317.02 522.735 317.759 523.89 317.778 523.883 C 317.797 523.872 318.516 522.722 319.376 521.316 L 320.94 518.759 L 322.786 518.748 C 323.802 518.737 324.633 518.748 324.633 518.759 C 324.633 518.77 323.519 520.515 322.159 522.639 C 320.743 524.85 319.691 526.526 319.7 526.558 C 319.71 526.589 320.932 528.446 322.419 530.685 C 323.906 532.924 325.123 534.765 325.123 534.776 C 325.123 534.787 324.26 534.795 323.204 534.795 L 321.285 534.795 L 319.501 532.007 C 318.06 529.756 317.709 529.228 317.674 529.266 C 317.65 529.291 316.838 530.546 315.87 532.055 L 314.109 534.798 L 312.202 534.798 C 311.154 534.798 310.295 534.787 310.295 534.781 L 310.296 534.779 Z" id="path3808"/>
      </g>
      <g>
        <title>A</title>
        <path style="fill: rgb(68, 72, 76); fill-opacity: 1; stroke: rgb(0, 0, 0); stroke-width: 0.82506; stroke-linecap: round; stroke-linejoin: round; stroke-miterlimit: 4; stroke-opacity: 1; stroke-dasharray: none; transform-box: fill-box; transform-origin: 50% 50%;" id="path3869" d="M 364.079 557.986 C 364.079 569.648 351.453 576.938 341.353 571.106 C 336.665 568.4 333.778 563.398 333.778 557.986 C 333.778 546.323 346.403 539.034 356.503 544.865 C 361.191 547.571 364.079 552.573 364.079 557.986 Z" transform="matrix(0, 1, -1, 0, -0.000024, 0.00002)"/>
        <path style="fill:#ffffff;stroke:none" d="M 341.264 565.858 C 341.324 565.698 347.33 550.28 347.406 550.089 L 347.493 549.87 L 349.185 549.87 L 350.876 549.87 L 354.073 557.851 C 355.831 562.24 357.278 565.851 357.287 565.876 C 357.301 565.911 356.952 565.918 355.56 565.91 L 353.815 565.9 L 353.112 564.069 L 352.409 562.238 L 349.186 562.248 L 345.962 562.258 L 345.298 564.089 L 344.633 565.92 L 342.937 565.92 C 341.336 565.92 341.242 565.91 341.264 565.859 L 341.264 565.858 Z M 351.367 559.533 C 351.357 559.509 350.856 558.16 350.253 556.535 C 349.65 554.911 349.146 553.594 349.133 553.609 C 349.116 553.629 347.827 557.157 346.969 559.533 C 346.956 559.567 347.411 559.576 349.168 559.576 C 350.926 559.576 351.38 559.566 351.367 559.533 Z" id="path3810"/>
      </g>
    </g>
    <g>
      <path d="M 116.751 647.207 C 116.751 658.869 104.125 666.159 94.025 660.327 C 89.337 657.621 86.45 652.619 86.45 647.207 C 86.45 635.544 99.075 628.254 109.175 634.086 C 113.863 636.792 116.751 641.794 116.751 647.207 Z" id="path3871" style="fill:#44484c;fill-opacity:1;stroke:#000000;stroke-width:0.82506043;stroke-linecap:round;stroke-linejoin:round;stroke-miterlimit:4;stroke-opacity:1;stroke-dasharray:none"/>
      <path d="M 96.092 652.375 L 96.092 639.699 L 107.07 646.037 L 96.092 652.375 Z" id="path3790" style="fill: rgb(0, 0, 0); stroke: rgb(0, 0, 0); stroke-width: 0.904694; stroke-linecap: round; stroke-linejoin: round; stroke-miterlimit: 4; stroke-opacity: 1; stroke-dasharray: none; transform-box: fill-box; transform-origin: 50% 50%;" transform="matrix(0, -1, 1, 0, 0.000001, 0.000005)"/>
    </g>
    <g>
      <path style="fill:#44484c;fill-opacity:1;stroke:#000000;stroke-width:0.82506043;stroke-linecap:round;stroke-linejoin:round;stroke-miterlimit:4;stroke-opacity:1;stroke-dasharray:none" id="path3873" d="M 116.751 709.836 C 116.751 721.499 104.125 728.788 94.025 722.957 C 89.337 720.25 86.45 715.249 86.45 709.836 C 86.45 698.173 99.075 690.884 109.175 696.715 C 113.863 699.422 116.751 704.423 116.751 709.836 Z"/>
      <path style="fill: rgb(0, 0, 0); stroke: rgb(0, 0, 0); stroke-width: 0.904694; stroke-linecap: round; stroke-linejoin: round; stroke-miterlimit: 4; stroke-opacity: 1; stroke-dasharray: none; transform-box: fill-box; transform-origin: 50% 50%;" id="path3792" d="M 96.092 705.074 L 96.092 717.75 L 107.07 711.412 L 96.092 705.074 Z" transform="matrix(0, 1, -1, 0, 0.00001, 0.000004)"/>
    </g>
    <g>
      <path style="fill: rgb(68, 72, 76); fill-opacity: 1; stroke: rgb(0, 0, 0); stroke-width: 0.82506; stroke-linecap: round; stroke-linejoin: round; stroke-miterlimit: 4; stroke-opacity: 1; stroke-dasharray: none; transform-box: fill-box; transform-origin: 50% 50%;" id="path3875" d="M 85.436 678.521 C 85.436 690.184 72.811 697.473 62.71 691.642 C 58.023 688.936 55.135 683.934 55.135 678.521 C 55.135 666.859 67.76 659.569 77.861 665.401 C 82.548 668.107 85.436 673.109 85.436 678.521 Z" transform="matrix(0, 1, -1, 0, -0.000001, 0.000003)"/>
      <path d="M 63.503 672.214 L 63.503 684.89 L 74.481 678.552 L 63.503 672.214 Z" id="path3788" style="fill: rgb(0, 0, 0); stroke: rgb(0, 0, 0); stroke-width: 0.904694; stroke-linecap: round; stroke-linejoin: round; stroke-miterlimit: 4; stroke-opacity: 1; stroke-dasharray: none; transform-box: fill-box; transform-origin: 50% 50%;" transform="matrix(-1, 0, 0, -1, -0.000006, 0.000004)"/>
    </g>
    <g>
      <path d="M 148.065 678.521 C 148.065 690.184 135.44 697.473 125.34 691.642 C 120.652 688.936 117.764 683.934 117.764 678.521 C 117.764 666.859 130.39 659.569 140.49 665.401 C 145.178 668.107 148.065 673.109 148.065 678.521 Z" id="path3877" style="fill: rgb(68, 72, 76); fill-opacity: 1; stroke: rgb(0, 0, 0); stroke-width: 0.82506; stroke-linecap: round; stroke-linejoin: round; stroke-miterlimit: 4; stroke-opacity: 1; stroke-dasharray: none; transform-box: fill-box; transform-origin: 50% 50%;" transform="matrix(0, 1, -1, 0, 0.000004, -0.000003)"/>
      <path style="fill:#000000;stroke:#000000;stroke-width:0.90469444;stroke-linecap:round;stroke-linejoin:round;stroke-miterlimit:4;stroke-opacity:1;stroke-dasharray:none" id="path3014" d="M 128.878 684.89 L 128.878 672.214 L 139.856 678.552 L 128.878 684.89 Z"/>
    </g>
    <g>
      <path d="M 311.684 752.429 C 311.684 765.384 297.659 773.481 286.44 767.003 C 281.233 763.997 278.025 758.441 278.025 752.429 C 278.025 739.473 292.05 731.376 303.269 737.854 C 308.476 740.86 311.684 746.416 311.684 752.429 Z" id="path3879" style="fill:#999595;fill-opacity:1;stroke:#000000;stroke-width:0.74274403;stroke-linecap:round;stroke-linejoin:round;stroke-miterlimit:4;stroke-opacity:1;stroke-dasharray:none"/>
      <path style="fill:#3a3d40;fill-opacity:1;stroke:#000000;stroke-width:0.99448955;stroke-linecap:round;stroke-linejoin:round;stroke-miterlimit:4;stroke-opacity:1;stroke-dasharray:none" id="path3881" d="M 307.424 752.582 C 307.424 762.258 296.949 768.305 288.57 763.467 C 284.681 761.222 282.285 757.072 282.285 752.582 C 282.285 742.906 292.76 736.859 301.139 741.696 C 305.028 743.942 307.424 748.091 307.424 752.582 Z"/>
      <path style="fill:#000000;stroke:#000000;stroke-width:1;stroke-linecap:butt;stroke-linejoin:miter;stroke-miterlimit:4;stroke-opacity:1;stroke-dasharray:none" d="M 286.013 751.912 L 288.497 751.912 L 288.497 759.73 C 292.661 759.73 297.314 759.73 301.099 759.73 L 301.099 751.912 L 303.583 751.912 C 300.847 749.367 297.164 745.892 294.798 743.729 C 291.935 746.36 288.918 749.2 286.013 751.912 L 286.013 751.912 Z M 291.87 752.043 C 293.807 752.043 295.97 752.043 297.726 752.043 L 297.726 757.037 C 295.791 757.037 293.628 757.037 291.87 757.037 L 291.87 752.043 Z" id="path3883"/>
    </g>
    <g style="">
      <title>rightJoy</title>
      <path style="fill:#44484c;fill-opacity:1;stroke:#000000;stroke-width:1;stroke-linecap:round;stroke-linejoin:round;stroke-miterlimit:4;stroke-opacity:1;stroke-dasharray:none" id="path3888" d="M 349.864 674.259 C 349.864 698.94 323.145 714.367 301.77 702.026 C 291.85 696.298 285.739 685.714 285.739 674.259 C 285.739 649.577 312.457 634.151 333.832 646.492 C 343.752 652.219 349.864 662.804 349.864 674.259 Z"/>
      <path d="M 340.285 674.481 C 340.285 691.789 321.548 702.607 306.559 693.953 C 299.602 689.937 295.317 682.514 295.317 674.481 C 295.317 657.173 314.054 646.355 329.043 655.009 C 336 659.026 340.285 666.448 340.285 674.481 Z" id="path3892" style="fill:#44484c;fill-opacity:1;stroke:#000000;stroke-width:1.42600417;stroke-linecap:round;stroke-linejoin:round;stroke-miterlimit:4;stroke-opacity:1;stroke-dasharray:none"/>
      <path style="fill:#000000;stroke:#000000;stroke-width:0.03125;stroke-linecap:round;stroke-linejoin:round;stroke-miterlimit:4;stroke-opacity:1;stroke-dasharray:none" d="M 316.639 648.145 C 316.639 646 316.649 644.733 316.655 644.665 C 316.685 644.458 316.787 644.26 316.944 644.103 C 317.42 643.627 318.228 643.768 318.521 644.378 C 318.631 644.606 318.623 644.329 318.623 648.095 L 318.623 651.497 L 317.922 651.497 C 317.536 651.496 317.09 651.501 316.93 651.507 L 316.639 651.518 L 316.639 648.145 L 316.639 648.145 Z" id="path3899"/>
      <path style="fill:#000000;fill-opacity:1;stroke:#000000;stroke-width:0.03125;stroke-linecap:round;stroke-linejoin:round;stroke-miterlimit:4;stroke-opacity:1;stroke-dasharray:none" d="M 317.52 704.566 C 317.13 704.522 316.795 704.233 316.672 703.834 C 316.648 703.755 316.645 703.504 316.641 700.595 L 316.631 697.441 L 316.862 697.454 C 316.989 697.461 317.436 697.467 317.855 697.467 L 318.617 697.467 L 318.617 700.623 L 318.617 703.779 L 318.582 703.881 C 318.477 704.186 318.236 704.426 317.93 704.528 C 317.83 704.562 317.641 704.579 317.522 704.566 L 317.52 704.566 Z" id="path3901"/>
      <path style="fill:#000000;fill-opacity:1;stroke:#000000;stroke-width:0.03125;stroke-linecap:round;stroke-linejoin:round;stroke-miterlimit:4;stroke-opacity:1;stroke-dasharray:none" d="M 340.786 674.549 C 340.786 674.194 340.776 673.748 340.773 673.556 L 340.76 673.208 L 343.991 673.212 L 347.223 673.216 L 347.337 673.258 C 347.768 673.416 348.036 673.813 348.007 674.252 C 347.991 674.496 347.895 674.71 347.726 674.883 C 347.593 675.019 347.469 675.091 347.238 675.165 C 347.188 675.181 346.527 675.186 343.98 675.189 L 340.785 675.194 L 340.785 674.549 L 340.786 674.549 Z" id="path3903"/>
      <path style="fill:#000000;fill-opacity:1;stroke:#000000;stroke-width:0.03125;stroke-linecap:round;stroke-linejoin:round;stroke-miterlimit:4;stroke-opacity:1;stroke-dasharray:none" d="M 288.114 675.177 C 287.899 675.148 287.689 675.04 287.536 674.878 C 287.003 674.315 287.272 673.416 288.028 673.231 C 288.099 673.214 288.717 673.21 291.478 673.209 L 294.842 673.209 L 294.83 673.541 C 294.82 673.724 294.818 674.17 294.818 674.533 L 294.818 675.193 L 291.513 675.191 C 289.695 675.19 288.166 675.183 288.114 675.177 L 288.114 675.177 Z" id="path3905"/>
    </g>
    <rect style="fill:#44484c;fill-opacity:1;stroke:#000000;stroke-width:1;stroke-linecap:round;stroke-linejoin:round;stroke-miterlimit:4;stroke-opacity:1;stroke-dasharray:none" id="rect3890" width="22.1875" height="6.375" x="132.65929" y="490.63376"/>
    <g style="">
      <title>LeftJoy</title>
      <path d="M 133.784 560.634 C 133.784 585.315 107.066 600.742 85.691 588.401 C 75.77 582.673 69.659 572.089 69.659 560.634 C 69.659 535.952 96.378 520.526 117.753 532.867 C 127.673 538.594 133.784 549.179 133.784 560.634 Z" id="path3907" style="fill:#44484c;fill-opacity:1;stroke:#000000;stroke-width:1;stroke-linecap:round;stroke-linejoin:round;stroke-miterlimit:4;stroke-opacity:1;stroke-dasharray:none"/>
      <path style="fill:#44484c;fill-opacity:1;stroke:#000000;stroke-width:1.42600417;stroke-linecap:round;stroke-linejoin:round;stroke-miterlimit:4;stroke-opacity:1;stroke-dasharray:none" id="path3909" d="M 124.206 560.856 C 124.206 578.164 105.469 588.982 90.48 580.328 C 83.523 576.312 79.238 568.889 79.238 560.856 C 79.238 543.548 97.974 532.73 112.964 541.384 C 119.92 545.401 124.206 552.823 124.206 560.856 Z"/>
      <path id="path3911" d="m 100.56002,534.51999 c 2e-4,-2.14499 0.006,-3.41233 0.0158,-3.48046 0.0299,-0.20675 0.13156,-0.40432 0.28919,-0.56195 0.4752,-0.4752 1.28334,-0.33419 1.57638,0.27505 0.10984,0.22838 0.10221,-0.0485 0.10247,3.71783 l 2.3e-4,3.40192 -0.70143,-8.2e-4 c -0.38578,-4.5e-4 -0.83227,0.004 -0.99219,0.0105 l -0.29075,0.0113 3e-4,-3.37331 z" style="fill:#000000;stroke:#000000;stroke-width:0.03125;stroke-linecap:round;stroke-linejoin:round;stroke-miterlimit:4;stroke-opacity:1;stroke-dasharray:none"/>
      <path id="path3913" d="m 101.44044,590.94079 c -0.38945,-0.0436 -0.7247,-0.33325 -0.8473,-0.73195 -0.0244,-0.0793 -0.0268,-0.33014 -0.0311,-3.23924 l -0.005,-3.1533 0.2308,0.0127 c 0.12694,0.007 0.57368,0.0127 0.99275,0.0127 l 0.76194,0 -0.004,3.15625 -0.004,3.15625 -0.0347,0.10157 c -0.10445,0.30532 -0.34564,0.54509 -0.65134,0.64749 -0.0998,0.0334 -0.28935,0.0509 -0.40814,0.0376 l 0,0 z" style="fill:#000000;fill-opacity:1;stroke:#000000;stroke-width:0.03125;stroke-linecap:round;stroke-linejoin:round;stroke-miterlimit:4;stroke-opacity:1;stroke-dasharray:none"/>
      <path id="path3915" d="m 124.70653,560.92405 c 0,-0.35469 -0.006,-0.80142 -0.0127,-0.99274 l -0.0127,-0.34784 3.23141,0.004 3.23141,0.004 0.11461,0.0419 c 0.43114,0.15748 0.6991,0.55501 0.66997,0.99393 -0.0161,0.24326 -0.11165,0.45768 -0.28091,0.63065 -0.13281,0.13572 -0.25762,0.20774 -0.48804,0.28161 -0.0498,0.016 -0.71149,0.021 -3.25781,0.0246 l -3.19532,0.005 0,-0.6449 0,0 z" style="fill:#000000;fill-opacity:1;stroke:#000000;stroke-width:0.03125;stroke-linecap:round;stroke-linejoin:round;stroke-miterlimit:4;stroke-opacity:1;stroke-dasharray:none"/>
      <path id="path3917" d="m 72.034659,561.55188 c -0.21504,-0.0284 -0.42503,-0.1369 -0.57817,-0.2988 -0.53275,-0.56321 -0.26401,-1.4625 0.49223,-1.64714 0.0705,-0.0172 0.68912,-0.0211 3.44981,-0.0215 l 3.36387,-5.6e-4 -0.0123,0.33203 c -0.007,0.18262 -0.0123,0.62911 -0.0123,0.9922 l 0,0.66016 -3.30468,-0.002 c -1.81758,-10e-4 -3.34688,-0.008 -3.39844,-0.0144 z" style="fill:#000000;fill-opacity:1;stroke:#000000;stroke-width:0.03125;stroke-linecap:round;stroke-linejoin:round;stroke-miterlimit:4;stroke-opacity:1;stroke-dasharray:none"/>
    </g>
    <rect style="fill:#44484c;fill-opacity:1;stroke:#000000;stroke-width:1;stroke-linecap:round;stroke-linejoin:round;stroke-miterlimit:4;stroke-opacity:1;stroke-dasharray:none" id="rect3919" width="25.75" height="25.125" x="111.78429" y="745.50873" ry="3.375"/>
    <path style="fill:#000000;stroke:#000000;stroke-width:1;stroke-linecap:round;stroke-linejoin:round;stroke-miterlimit:4;stroke-opacity:1;stroke-dasharray:none" id="path3921" d="m 752.8125,340.15625 a 8.84375,8.84375 0 1 1 -17.6875,0 8.84375,8.84375 0 1 1 17.6875,0 z" transform="translate(-619.40321,418.13374)"/>
    <g transform="matrix(1, 0, 0, 1, -1.265991, 0)">
      <path id="path4166" d="M 375.786 435.748 L 277.973 435.748 C 278.024 415.382 288.039 394.296 307.301 394.296 L 334.662 394.624 C 361.45 399.511 366.955 418.751 375.786 435.748 Z" style="fill:#44484c;fill-opacity:1;stroke:#000000;stroke-width:1px;stroke-linecap:butt;stroke-linejoin:miter;stroke-opacity:1"/>
      <path style="fill:#000000;fill-opacity:1;stroke:#000000;stroke-width:0.01852112;stroke-linecap:round;stroke-linejoin:round;stroke-miterlimit:4;stroke-opacity:1;stroke-dasharray:none" d="M 317.563 417.02 L 317.563 412.453 L 319.929 412.461 C 322.452 412.469 322.508 412.472 323.031 412.565 C 323.344 412.622 323.55 412.686 323.777 412.798 C 324.018 412.918 324.176 413.034 324.355 413.222 C 324.65 413.533 324.859 413.929 324.967 414.387 C 325.012 414.579 325.016 414.627 325.017 415.003 C 325.017 415.321 325.007 415.445 324.985 415.571 C 324.773 416.612 324.057 417.267 322.868 417.506 C 322.645 417.551 322.619 417.56 322.65 417.582 C 322.669 417.596 322.769 417.663 322.873 417.731 C 323.417 418.088 323.754 418.447 324.268 419.216 C 324.455 419.496 325.726 421.518 325.744 421.564 C 325.754 421.582 325.533 421.586 324.664 421.582 L 323.575 421.577 L 322.759 420.363 C 321.597 418.634 321.467 418.451 321.22 418.206 C 320.88 417.87 320.635 417.793 319.855 417.776 L 319.397 417.766 L 319.397 419.676 L 319.397 421.586 L 318.48 421.586 L 317.563 421.586 L 317.563 417.02 Z M 321.989 416.29 C 322.29 416.257 322.43 416.223 322.593 416.142 C 322.856 416.013 323.039 415.772 323.111 415.464 C 323.15 415.297 323.149 414.949 323.11 414.799 C 322.992 414.343 322.638 414.062 322.119 414.011 C 322.022 414.001 321.37 413.994 320.669 413.993 L 319.396 413.993 L 319.396 415.162 L 319.396 416.331 L 320.595 416.321 C 321.31 416.315 321.873 416.302 321.989 416.29 Z" id="path4234"/>
      <path style="fill:#000000;fill-opacity:1;stroke:#000000;stroke-width:0.01852112;stroke-linecap:round;stroke-linejoin:round;stroke-miterlimit:4;stroke-opacity:1;stroke-dasharray:none" d="M 308.95 420.762 L 308.95 419.936 L 311.349 416.974 C 312.668 415.344 313.747 414.007 313.747 414.002 C 313.747 413.997 312.789 413.993 311.617 413.993 L 309.488 413.993 L 309.488 413.224 L 309.488 412.456 L 312.831 412.456 L 316.174 412.456 L 316.174 413.164 L 316.174 413.873 L 313.662 416.966 L 311.151 420.059 L 313.755 420.064 L 316.359 420.069 L 316.359 420.828 L 316.359 421.587 L 312.655 421.587 L 308.95 421.587 L 308.95 420.762 Z" id="path4236"/>
    </g>
    <g transform="matrix(1, 0, 0, 1, 0.588627, 2.069977)">
      <path style="fill:#44484c;fill-opacity:1;stroke:#000000;stroke-width:1px;stroke-linecap:butt;stroke-linejoin:miter;stroke-opacity:1" d="M 44.464 433.678 L 142.277 433.678 C 142.226 413.311 132.211 392.226 112.95 392.226 L 85.588 392.553 C 58.801 397.441 53.295 416.681 44.464 433.678 Z" id="path4162"/>
      <path style="fill:#000000;fill-opacity:1;stroke:#000000;stroke-width:0.01263916;stroke-linecap:round;stroke-linejoin:round;stroke-miterlimit:4;stroke-opacity:1;stroke-dasharray:none" d="M 95.229 418.479 L 95.229 417.679 L 97.548 414.814 C 98.824 413.239 99.868 411.947 99.868 411.943 C 99.868 411.939 98.941 411.936 97.807 411.936 L 95.747 411.936 L 95.747 411.196 L 95.747 410.457 L 98.977 410.457 L 102.206 410.457 L 102.206 411.144 L 102.206 411.831 L 99.785 414.812 L 97.364 417.794 L 99.88 417.797 L 102.395 417.8 L 102.395 418.539 L 102.395 419.279 L 98.812 419.279 L 95.229 419.279 L 95.229 418.479 Z" id="path4216"/>
      <path style="fill:#000000;fill-opacity:1;stroke:#000000;stroke-width:0.01263916;stroke-linecap:round;stroke-linejoin:round;stroke-miterlimit:4;stroke-opacity:1;stroke-dasharray:none" d="M 103.584 414.906 L 103.584 410.533 L 104.468 410.533 L 105.353 410.533 L 105.353 414.167 L 105.353 417.8 L 107.571 417.8 L 109.789 417.8 L 109.789 418.54 L 109.789 419.279 L 106.686 419.279 L 103.584 419.279 L 103.584 414.906 Z" id="path4218"/>
    </g>
  </g>
</svg>