<?xml version="1.0" encoding="utf-8"?>
<svg xmlns="http://www.w3.org/2000/svg" viewBox="302.463 259.1356 30.301 30.3459" width="30.301px" height="30.3459px">
  <g transform="matrix(1, 0, 0, 1, 0, -252.36218261718747)">
    <path style="fill-opacity: 1; stroke: rgb(0, 0, 0); stroke-width: 0.82506; stroke-linecap: round; stroke-linejoin: round; stroke-miterlimit: 4; stroke-opacity: 1; stroke-dasharray: none; fill: rgb(255, 255, 255);" id="path3095" d="M 332.764 526.671 C 332.764 538.334 320.139 545.623 310.038 539.791 C 305.351 537.085 302.463 532.084 302.463 526.671 C 302.463 515.008 315.088 507.719 325.189 513.55 C 329.876 516.257 332.764 521.258 332.764 526.671 Z"/>
    <path style="stroke: none;" d="M 310.296 534.779 C 310.296 534.768 311.525 532.884 313.028 530.589 L 315.761 526.416 L 313.339 522.675 C 312.007 520.617 310.887 518.891 310.849 518.838 L 310.781 518.742 L 312.656 518.742 L 314.53 518.742 L 316.137 521.318 C 317.02 522.735 317.759 523.89 317.778 523.883 C 317.797 523.872 318.516 522.722 319.376 521.316 L 320.94 518.759 L 322.786 518.748 C 323.802 518.737 324.633 518.748 324.633 518.759 C 324.633 518.77 323.519 520.515 322.159 522.639 C 320.743 524.85 319.691 526.526 319.7 526.558 C 319.71 526.589 320.932 528.446 322.419 530.685 C 323.906 532.924 325.123 534.765 325.123 534.776 C 325.123 534.787 324.26 534.795 323.204 534.795 L 321.285 534.795 L 319.501 532.007 C 318.06 529.756 317.709 529.228 317.674 529.266 C 317.65 529.291 316.838 530.546 315.87 532.055 L 314.109 534.798 L 312.202 534.798 C 311.154 534.798 310.295 534.787 310.295 534.781 L 310.296 534.779 Z" id="path3808"/>
  </g>
</svg>