<?xml version="1.0" encoding="utf-8"?>
<svg xmlns="http://www.w3.org/2000/svg" viewBox="271.1256 290.473 30.3458 30.301" width="30.3458px" height="30.301px">
  <g transform="matrix(1, 0, 0, 1, 0, -252.36218261718747)">
    <path d="M 301.449 557.986 C 301.449 569.648 288.824 576.938 278.723 571.106 C 274.036 568.4 271.148 563.398 271.148 557.986 C 271.148 546.323 283.774 539.034 293.874 544.865 C 298.561 547.571 301.449 552.573 301.449 557.986 Z" id="path3867" style="fill-opacity: 1; stroke: rgb(0, 0, 0); stroke-width: 0.82506; stroke-linecap: round; stroke-linejoin: round; stroke-miterlimit: 4; stroke-opacity: 1; stroke-dasharray: none; transform-box: fill-box; transform-origin: 50% 50%; fill: rgb(255, 255, 255);" transform="matrix(0, 1, -1, 0, -0.000008, 0.000004)"/>
    <path style="stroke: none;" d="M 284.771 562.86 L 284.771 559.491 L 281.858 554.885 C 280.256 552.353 278.945 550.274 278.945 550.266 C 278.945 550.256 279.781 550.252 280.803 550.252 L 282.661 550.252 L 284.545 553.424 C 285.946 555.783 286.438 556.585 286.467 556.555 C 286.488 556.533 287.326 555.105 288.328 553.383 L 290.151 550.252 L 291.983 550.252 L 293.815 550.252 L 293.765 550.331 C 293.737 550.374 292.417 552.459 290.831 554.965 L 287.946 559.521 L 287.946 562.875 L 287.946 566.23 L 286.359 566.23 L 284.772 566.23 L 284.772 562.861 L 284.771 562.86 Z" id="path3816"/>
  </g>
</svg>