<?xml version="1.0" encoding="utf-8"?>
<svg xmlns="http://www.w3.org/2000/svg" viewBox="45.0526 141.9338 97.813 41.452" width="97.813px" height="41.452px">
  <g transform="matrix(1, 0, 0, 1, 0.5886269807815552, -250.2922055721283)">
    <title>ZL</title>
    <path style="fill:#44484c;fill-opacity:1;stroke:#000000;stroke-width:1px;stroke-linecap:butt;stroke-linejoin:miter;stroke-opacity:1" d="M 44.464 433.678 L 142.277 433.678 C 142.226 413.311 132.211 392.226 112.95 392.226 L 85.588 392.553 C 58.801 397.441 53.295 416.681 44.464 433.678 Z" id="path4162"/>
    <path style="fill:#000000;fill-opacity:1;stroke:#000000;stroke-width:0.01263916;stroke-linecap:round;stroke-linejoin:round;stroke-miterlimit:4;stroke-opacity:1;stroke-dasharray:none" d="M 95.229 418.479 L 95.229 417.679 L 97.548 414.814 C 98.824 413.239 99.868 411.947 99.868 411.943 C 99.868 411.939 98.941 411.936 97.807 411.936 L 95.747 411.936 L 95.747 411.196 L 95.747 410.457 L 98.977 410.457 L 102.206 410.457 L 102.206 411.144 L 102.206 411.831 L 99.785 414.812 L 97.364 417.794 L 99.88 417.797 L 102.395 417.8 L 102.395 418.539 L 102.395 419.279 L 98.812 419.279 L 95.229 419.279 L 95.229 418.479 Z" id="path4216"/>
    <path style="fill:#000000;fill-opacity:1;stroke:#000000;stroke-width:0.01263916;stroke-linecap:round;stroke-linejoin:round;stroke-miterlimit:4;stroke-opacity:1;stroke-dasharray:none" d="M 103.584 414.906 L 103.584 410.533 L 104.468 410.533 L 105.353 410.533 L 105.353 414.167 L 105.353 417.8 L 107.571 417.8 L 109.789 417.8 L 109.789 418.54 L 109.789 419.279 L 106.686 419.279 L 103.584 419.279 L 103.584 414.906 Z" id="path4218"/>
  </g>
</svg>