<?xml version="1.0" encoding="utf-8"?>
<svg xmlns="http://www.w3.org/2000/svg" viewBox="276.707 141.9338 97.813 41.452" width="97.813px" height="41.452px">
  <g transform="matrix(1, 0, 0, 1, -1.265990972518921, -252.3621826171875)">
    <title>ZR</title>
    <path id="path4166" d="M 375.786 435.748 L 277.973 435.748 C 278.024 415.382 288.039 394.296 307.301 394.296 L 334.662 394.624 C 361.45 399.511 366.955 418.751 375.786 435.748 Z" style="fill-opacity: 1; stroke: rgb(0, 0, 0); stroke-width: 1px; stroke-linecap: butt; stroke-linejoin: miter; stroke-opacity: 1; fill: rgb(255, 255, 255);"/>
    <path style="fill:#000000;fill-opacity:1;stroke:#000000;stroke-width:0.01852112;stroke-linecap:round;stroke-linejoin:round;stroke-miterlimit:4;stroke-opacity:1;stroke-dasharray:none" d="M 317.563 417.02 L 317.563 412.453 L 319.929 412.461 C 322.452 412.469 322.508 412.472 323.031 412.565 C 323.344 412.622 323.55 412.686 323.777 412.798 C 324.018 412.918 324.176 413.034 324.355 413.222 C 324.65 413.533 324.859 413.929 324.967 414.387 C 325.012 414.579 325.016 414.627 325.017 415.003 C 325.017 415.321 325.007 415.445 324.985 415.571 C 324.773 416.612 324.057 417.267 322.868 417.506 C 322.645 417.551 322.619 417.56 322.65 417.582 C 322.669 417.596 322.769 417.663 322.873 417.731 C 323.417 418.088 323.754 418.447 324.268 419.216 C 324.455 419.496 325.726 421.518 325.744 421.564 C 325.754 421.582 325.533 421.586 324.664 421.582 L 323.575 421.577 L 322.759 420.363 C 321.597 418.634 321.467 418.451 321.22 418.206 C 320.88 417.87 320.635 417.793 319.855 417.776 L 319.397 417.766 L 319.397 419.676 L 319.397 421.586 L 318.48 421.586 L 317.563 421.586 L 317.563 417.02 Z M 321.989 416.29 C 322.29 416.257 322.43 416.223 322.593 416.142 C 322.856 416.013 323.039 415.772 323.111 415.464 C 323.15 415.297 323.149 414.949 323.11 414.799 C 322.992 414.343 322.638 414.062 322.119 414.011 C 322.022 414.001 321.37 413.994 320.669 413.993 L 319.396 413.993 L 319.396 415.162 L 319.396 416.331 L 320.595 416.321 C 321.31 416.315 321.873 416.302 321.989 416.29 Z" id="path4234"/>
    <path style="fill:#000000;fill-opacity:1;stroke:#000000;stroke-width:0.01852112;stroke-linecap:round;stroke-linejoin:round;stroke-miterlimit:4;stroke-opacity:1;stroke-dasharray:none" d="M 308.95 420.762 L 308.95 419.936 L 311.349 416.974 C 312.668 415.344 313.747 414.007 313.747 414.002 C 313.747 413.997 312.789 413.993 311.617 413.993 L 309.488 413.993 L 309.488 413.224 L 309.488 412.456 L 312.831 412.456 L 316.174 412.456 L 316.174 413.164 L 316.174 413.873 L 313.662 416.966 L 311.151 420.059 L 313.755 420.064 L 316.359 420.069 L 316.359 420.828 L 316.359 421.587 L 312.655 421.587 L 308.95 421.587 L 308.95 420.762 Z" id="path4236"/>
  </g>
</svg>